# xmcd CD database file
#
# Track frame offsets:
#	150
#	15112
#	31412
#	43932
#	64502
#	81457
#	96775
#	114690
#	130807
#	153070
#	162345
#	166747
#	177532
#
# Disc length: 2463 seconds
#
# Revision: 0
# Processed by: cddbd v1.5PL3 Copyright (c) Steve Scherf et al.
# Submitted via: CDex 1.50Beta7
#
DISCID=9c099d0d
DTITLE=コンピレーション - AQUADIUM Vol.2
DYEAR=1900
DGENRE=
TTITLE0=SCRAP and TRASH／THE HUSH
TTITLE1=恋に落ちた大泥棒／ラ★タカシーノ
TTITLE2=JAPANESE MEETS CHINESE IN U.S.A／ELECTRIC EEL SHOCK
TTITLE3=恋の虫／Hi-TOUCH Rookies
TTITLE4=思春期／THE DESTRONZ
TTITLE5=INNER FLOWER／THE STYLES AND FRIENDS
TTITLE6=白と黒／COCK ROACH
TTITLE7=A GIFT／sherpa
TTITLE8=ペディキュア／東京ピンサロックス
TTITLE9=ネジマガッタ！！／GQ06
TTITLE10=レッツ☆ダンス／韻シスト
TTITLE11=NOW ON BEAT／J.A.M.S.
TTITLE12=少年A／A-Quick
EXTD=
EXTT0=
EXTT1=
EXTT2=
EXTT3=
EXTT4=
EXTT5=
EXTT6=
EXTT7=
EXTT8=
EXTT9=
EXTT10=
EXTT11=
EXTT12=
PLAYORDER=
